<?xml version="1.0" encoding="iso-8859-1"?>
<!-- Generator: Adobe Illustrator 19.0.0, SVG Export Plug-In . SVG Version: 6.00 Build 0)  -->
<svg version="1.1" id="Layer_1" xmlns="http://www.w3.org/2000/svg" xmlns:xlink="http://www.w3.org/1999/xlink" x="0px" y="0px"
	 viewBox="0 0 300 300" style="enable-background:new 0 0 300 300;" xml:space="preserve">
<g>
	<g>
		<g>
			<path d="M150,203.226c0,2.671-2.173,4.839-4.839,4.839s-4.839-2.168-4.839-4.839v-15.203c8.323-2.163,14.516-9.673,14.516-18.668
				v-4.839v-9.677v-24.194c0-19.195-12.561-35.826-30.266-41.487l15.576-21.416h-21.721c1.616-4.548,2.54-9.421,2.54-14.516h2.419
				c9.339,0,16.935-7.597,16.935-16.935c0-9.338-7.597-16.935-16.935-16.935h-1.277c-4.829,0-9.169-2.685-11.327-7.002
				C106.969,4.737,99.31,0,90.794,0H64.045c-8.516,0-16.176,4.737-19.984,12.353c-2.163,4.316-6.503,7.002-11.332,7.002h-1.277
				c-9.339,0-16.935,7.597-16.935,16.935c0,9.338,7.597,16.935,16.935,16.935h2.419c0,5.095,0.924,9.968,2.54,14.516H14.69
				l15.581,21.426C12.537,94.81,0,111.358,0,130.645v48.387c0,15.992,12.997,29.003,28.984,29.032l-11.177,78.252l11.226-8.023V300
				h53.226v-26.884c1.5,0.876,3.116,1.558,4.839,2.003v12.784c0,6.673,5.429,12.097,12.097,12.097
				c6.668,0,12.097-5.424,12.097-12.097v-12.774c2.202-0.571,4.268-1.524,6.135-2.821l19.606,14.008l-11.226-78.595v-4.495V186.02
				c1.5,0.876,3.116,1.558,4.839,2.003v15.203c0,8.003,6.513,14.516,14.516,14.516c8.003,0,14.516-6.513,14.516-14.516v-9.677H150
				V203.226z M33.871,33.871v9.677h-2.419c-4.002,0-7.258-3.256-7.258-7.258c0-4.002,3.256-7.258,7.258-7.258h1.277
				c8.516,0,16.176-4.737,19.984-12.353c2.163-4.316,6.503-7.002,11.332-7.002h26.748c4.829,0,9.169,2.685,11.327,7.002
				c3.813,7.616,11.473,12.353,19.989,12.353h1.277c4.002,0,7.258,3.256,7.258,7.258c0,4.002-3.256,7.258-7.258,7.258h-2.419v-9.677
				H33.871z M77.419,87.097c-18.677,0-33.871-15.198-33.871-33.871v-9.677h13.471l20.898,9.498c-0.31,0.808-0.498,1.679-0.498,2.598
				c0,4.006,3.252,7.258,7.258,7.258h9.677c1.219,0,2.347-0.329,3.358-0.856l10.674,4.853
				C103.118,78.774,91.229,87.097,77.419,87.097z M86.177,95.889l-8.758,15.324l-8.758-15.324c2.831,0.581,5.758,0.885,8.758,0.885
				S83.347,96.469,86.177,95.889z M101.08,52.95c-1.069-2.671-3.673-4.563-6.726-4.563h-3.31L80.4,43.548h30.89v9.678
				c0,1.437-0.121,2.84-0.295,4.229L101.08,52.95z M41.235,77.419c3.373,5.027,7.781,9.285,12.895,12.542l23.289,40.761
				l23.294-40.761c5.11-3.252,9.523-7.515,12.895-12.542h7.539l-34.108,46.897l2.473,64.394H65.327l2.477-64.394L33.697,77.419
				H41.235z M29.033,198.387c-7.133,0-13.307-3.919-16.665-9.677h16.665V198.387z M29.033,120.967v58.065H9.677v-48.387
				c0-16.123,11.255-29.787,26.69-33.102l21.639,29.748l-4.684,121.766L30.58,265.296l8.081-56.545l0.005-0.687h0.044v-87.097
				H29.033z M72.581,290.323H38.71v-9.677h33.871V290.323z M101.614,287.903h-0.001c0,1.331-1.084,2.419-2.419,2.419
				c-1.335,0-2.419-1.089-2.419-2.419v-12.097h4.839V287.903z M106.451,266.13H91.935c-5.337-0.001-9.677-4.341-9.677-9.678v-38.71
				h-9.677v53.226H39.29l23.516-16.8l2.148-55.781h24.929l2.144,55.781l16.437,11.739
				C107.811,266.047,107.133,266.13,106.451,266.13z M101.521,249.058l-4.684-121.761l21.639-29.753
				c15.402,3.319,26.685,17.056,26.685,33.102v24.194h-19.355v-33.871h-9.677v33.871v14.516v33.871v4.839l8.129,57.231
				L101.521,249.058z M125.806,169.355v-4.839h19.355v4.839c0,5.337-4.34,9.677-9.677,9.677
				C130.147,179.032,125.806,174.692,125.806,169.355z"/>
			<path d="M232.258,260.4v10.568h9.677V260.4c5.618-2.003,9.677-7.326,9.677-13.626c0-8.003-6.513-14.516-14.516-14.516
				s-14.516,6.513-14.516,14.516C222.581,253.074,226.64,258.397,232.258,260.4z M237.097,241.935c2.666,0,4.839,2.168,4.839,4.839
				s-2.173,4.839-4.839,4.839c-2.666,0-4.839-2.168-4.839-4.839S234.431,241.935,237.097,241.935z"/>
			<path d="M220.162,116.129h-14.516c-1.335,0-2.419-1.089-2.419-2.419c0-1.33,1.084-2.419,2.419-2.419h14.516
				c1.335,0,2.419,1.089,2.419,2.419v2.419h9.677v-2.419c0-6.673-5.429-12.097-12.097-12.097h-2.419v-4.839h-9.677v4.839h-2.419
				c-6.668,0-12.097,5.424-12.097,12.097c0,6.673,5.429,12.097,12.097,12.097h14.516c1.335,0,2.419,1.089,2.419,2.419
				c0,1.331-1.084,2.419-2.419,2.419h-14.516c-1.335,0-2.419-1.089-2.419-2.419v-2.419h-9.677v2.419
				c0,6.673,5.429,12.097,12.097,12.097h2.419v4.839h9.677v-4.839h2.419c6.668,0,12.097-5.424,12.097-12.097
				C232.259,121.553,226.83,116.129,220.162,116.129z"/>
			<path d="M261.29,130.645c-3.963,0-7.79,0.605-11.395,1.718c1.113-3.605,1.718-7.432,1.718-11.395c0-2.119-0.232-4.2-0.571-6.261
				c3.266,0.9,6.697,1.423,10.248,1.423c21.344,0,38.71-17.366,38.71-38.71s-17.366-38.71-38.71-38.71s-38.71,17.366-38.71,38.71
				c0,2.134,0.218,4.215,0.552,6.256c-3.319-0.919-6.75-1.418-10.229-1.418c-21.344,0-38.71,17.366-38.71,38.71
				c0,21.344,17.366,38.71,38.71,38.71c3.963,0,7.79-0.605,11.395-1.718c-0.653,2.11-1.098,4.306-1.379,6.556h-48.726v48.387v9.677
				V300H300v-77.419v-9.677v-43.548C300,148.011,282.634,130.645,261.29,130.645z M261.29,48.387
				c16.011,0,29.032,13.021,29.032,29.032s-13.021,29.032-29.032,29.032c-5.7,0-11.008-1.674-15.498-4.524
				c-2.206-1.403-4.2-3.087-5.937-4.998c-0.068-0.073-0.135-0.145-0.203-0.223c-1.727-1.94-3.198-4.103-4.365-6.455
				c-1.921-3.876-3.029-8.221-3.029-12.832C232.258,61.408,245.279,48.387,261.29,48.387z M212.903,150.001
				c-16.011,0-29.032-13.022-29.032-29.033c0-16.011,13.021-29.032,29.032-29.032c5.013,0,9.929,1.311,14.298,3.803
				c0.721,1.34,1.539,2.618,2.405,3.856c0.082,0.116,0.169,0.223,0.252,0.334c0.755,1.055,1.563,2.061,2.419,3.034
				c0.203,0.227,0.406,0.45,0.615,0.673c0.818,0.885,1.674,1.727,2.569,2.531c0.194,0.174,0.377,0.353,0.571,0.518
				c1.103,0.953,2.25,1.863,3.455,2.69c1.626,3.702,2.448,7.592,2.448,11.594C241.935,136.98,228.914,150.001,212.903,150.001z
				 M290.323,232.258h-19.355v9.677h19.355v9.677h-19.355v9.677h19.355v9.677h-19.355v9.677h19.355v9.677H183.871v-9.677h19.355
				v-9.677h-19.355v-9.677h19.355v-9.677h-19.355v-9.677h19.355v-9.677h-19.355v-9.677h106.452V232.258z M290.323,212.903
				L290.323,212.903H183.871v-38.71h39.044c2.395,19.065,18.673,33.871,38.376,33.871c11.565,0,21.934-5.124,29.032-13.19V212.903z
				 M261.29,198.387c-16.011,0-29.032-13.021-29.032-29.032s13.021-29.032,29.032-29.032c16.011,0,29.032,13.021,29.032,29.032
				S277.302,198.387,261.29,198.387z"/>
			<path d="M268.549,164.516h-14.516c-1.335,0-2.419-1.089-2.419-2.419c0-1.331,1.084-2.419,2.419-2.419h14.516
				c1.335,0,2.419,1.089,2.419,2.419v2.419h9.677v-2.419c0-6.673-5.429-12.097-12.097-12.097h-2.419v-4.839h-9.677V150h-2.419
				c-6.668,0-12.097,5.424-12.097,12.097c0,6.673,5.429,12.097,12.097,12.097h14.516c1.335,0,2.419,1.089,2.419,2.419
				c0,1.331-1.084,2.419-2.419,2.419h-14.516c-1.335,0-2.419-1.089-2.419-2.419v-2.419h-9.677v2.419
				c0,6.673,5.429,12.097,12.097,12.097h2.419v4.839h9.677v-4.839h2.419c6.668,0,12.097-5.424,12.097-12.097
				C280.646,169.94,275.217,164.516,268.549,164.516z"/>
			<path d="M254.031,82.258h14.516c1.335,0,2.419,1.089,2.419,2.419s-1.084,2.419-2.419,2.419h-14.516
				c-1.335,0-2.419-1.089-2.419-2.419v-2.419h-9.677v2.419c0,6.673,5.43,12.097,12.097,12.097h2.419v4.839h9.677v-4.839h2.419
				c6.668,0,12.097-5.424,12.097-12.097s-5.429-12.097-12.097-12.097h-14.516c-1.335,0-2.419-1.089-2.419-2.419
				s1.084-2.419,2.419-2.419h14.516c1.335,0,2.419,1.089,2.419,2.419v2.419h9.677v-2.419c0-6.673-5.429-12.097-12.097-12.097h-2.419
				v-4.839h-9.677v4.839h-2.419c-6.668,0-12.097,5.424-12.097,12.097C241.934,76.834,247.363,82.258,254.031,82.258z"/>
		</g>
	</g>
</g>
<g>
</g>
<g>
</g>
<g>
</g>
<g>
</g>
<g>
</g>
<g>
</g>
<g>
</g>
<g>
</g>
<g>
</g>
<g>
</g>
<g>
</g>
<g>
</g>
<g>
</g>
<g>
</g>
<g>
</g>
</svg>
