<?xml version="1.0" ?><svg id="Icon" viewBox="0 0 64 64" xmlns="http://www.w3.org/2000/svg" xmlns:xlink="http://www.w3.org/1999/xlink"><defs><style>.cls-1{fill:url(#linear-gradient);}.cls-2{fill:url(#linear-gradient-2);}.cls-3{fill:url(#linear-gradient-3);}.cls-4{fill:url(#linear-gradient-4);}.cls-5{fill:url(#linear-gradient-5);}.cls-6{fill:url(#linear-gradient-6);}.cls-7{fill:url(#linear-gradient-7);}.cls-8{fill:url(#linear-gradient-8);}</style><linearGradient gradientUnits="userSpaceOnUse" id="linear-gradient" x1="13" x2="13" y1="2.248" y2="24.734"><stop offset="0" stop-color="#95c8ec"/><stop offset="1" stop-color="#57a0d7"/></linearGradient><linearGradient gradientUnits="userSpaceOnUse" id="linear-gradient-2" x1="23.5" x2="23.5" y1="26.485" y2="0.886"><stop offset="0" stop-color="#70b2e2"/><stop offset="1" stop-color="#3d82c4"/></linearGradient><linearGradient id="linear-gradient-3" x1="40.5" x2="40.5" xlink:href="#linear-gradient-2" y1="26.485" y2="0.886"/><linearGradient id="linear-gradient-4" x1="51" x2="51" xlink:href="#linear-gradient" y1="2.248" y2="24.734"/><linearGradient gradientUnits="userSpaceOnUse" id="linear-gradient-5" x1="45.5" x2="45.5" y1="60.941" y2="11.802"><stop offset="0" stop-color="#57a0d7"/><stop offset="1" stop-color="#3374ba"/></linearGradient><linearGradient id="linear-gradient-6" x1="18.5" x2="18.5" xlink:href="#linear-gradient-5" y1="60.941" y2="11.802"/><linearGradient id="linear-gradient-7" x1="32" x2="32" xlink:href="#linear-gradient" y1="2.248" y2="24.734"/><linearGradient id="linear-gradient-8" x1="32" x2="32" xlink:href="#linear-gradient-2" y1="19.238" y2="62.855"/></defs><polygon class="cls-1" points="21 22 5 22 15 5 21 22"/><polygon class="cls-2" points="32 5 21 22 15 5 32 5"/><polygon class="cls-3" points="49 5 43 22 32 5 49 5"/><polygon class="cls-4" points="59 22 43 22 49 5 59 22"/><polygon class="cls-5" points="59 22 32 59 43 22 59 22"/><polygon class="cls-6" points="32 59 5 22 21 22 32 59"/><polygon class="cls-7" points="43 22 21 22 32 5 43 22"/><polygon class="cls-8" points="43 22 32 59 21 22 43 22"/></svg>